<?xml version="1.0" encoding="utf-8" ?>
<svg xmlns="http://www.w3.org/2000/svg" xmlns:xlink="http://www.w3.org/1999/xlink" width="50.8467" height="60" viewBox="0 0 50.8467 60">
	<path d="M30.0064 0L29.8204 0L29.6664 0C27.7421 0.0256575 25.8371 0.224503 23.9641 0.609365C22.0269 1.00706 20.1475 1.59076 18.3258 2.36049C16.5362 3.11738 14.8364 4.04105 13.2264 5.12508C11.6292 6.20269 10.1539 7.42142 8.78768 8.78769C7.42783 10.1475 6.20269 11.6293 5.12508 13.2264C4.03464 14.8364 3.11097 16.5362 2.36049 18.3259C1.59076 20.1475 1.00706 22.0269 0.609365 23.9641C0.20526 25.9525 0 27.9666 0 30.0064C0 32.0462 0.20526 34.0603 0.609365 36.0488C1.00706 37.9859 1.59076 39.8653 2.36049 41.687C3.11738 43.4766 4.04105 45.1764 5.12508 46.7864C6.20269 48.3836 7.42142 49.8589 8.78768 51.2251C10.1475 52.585 11.6292 53.8101 13.2264 54.8877C14.8364 55.9782 16.5362 56.9019 18.3258 57.6523C20.1475 58.4221 22.0269 59.0058 23.9641 59.4035C25.9525 59.8076 27.9666 60.0128 30.0064 60.0128C32.0462 60.0128 34.0603 59.8076 36.0487 59.4035C36.363 59.3393 36.6709 59.2688 36.9788 59.1982C37.3701 59.102 37.6074 58.7171 37.524 58.3259L36.0423 51.4817C35.9525 51.0648 35.5163 50.8018 35.0994 50.9044C34.8492 50.9686 34.5927 51.0199 34.3425 51.0712C32.9185 51.3598 31.4753 51.5074 30.0064 51.5074C28.5375 51.5074 27.0943 51.3598 25.6703 51.0712C24.2848 50.789 22.9442 50.372 21.6421 49.8204C20.3656 49.2816 19.1469 48.6209 17.9923 47.8384C16.8505 47.0622 15.7857 46.1899 14.8108 45.2085C13.8294 44.2271 12.957 43.1687 12.1809 42.0269C11.3983 40.8724 10.7376 39.6536 10.1988 38.3772C9.6472 37.0751 9.23027 35.7345 8.94803 34.3489C8.65939 32.925 8.51186 31.4817 8.51186 30.0128C8.51186 28.5439 8.65939 27.1007 8.94803 25.6767C9.23027 24.2912 9.6472 22.9506 10.1988 21.6485C10.7376 20.372 11.3983 19.1533 12.1809 17.9987C12.957 16.857 13.8294 15.7922 14.8108 14.8172C15.7922 13.8358 16.8505 12.9634 17.9923 12.1873C19.1469 11.4048 20.3656 10.7441 21.6421 10.2053C22.9442 9.65363 24.2848 9.23669 25.6703 8.95446C27.0301 8.67864 28.4156 8.53111 29.814 8.51828C30.6286 8.5247 31.4368 8.6145 32.2258 8.77486C33.0404 8.94163 33.8358 9.18538 34.5991 9.51251C35.356 9.83323 36.068 10.2181 36.7543 10.6799C37.4278 11.1353 38.0564 11.6549 38.6337 12.2322C39.211 12.8095 39.7306 13.4381 40.186 14.1116C40.6478 14.7915 41.0327 15.5099 41.3534 16.2668C41.6805 17.0366 41.9243 17.8255 42.0911 18.6402C42.2642 19.4804 42.3476 20.3336 42.3476 21.1995C42.3476 22.0654 42.2643 22.9185 42.0911 23.7588C41.9243 24.5735 41.6805 25.3688 41.3534 26.1321C41.0327 26.889 40.6478 27.601 40.186 28.2874C39.7306 28.9609 39.211 29.5895 38.6337 30.1668C38.0564 30.7441 37.4278 31.2636 36.7543 31.7191C36.0744 32.1809 35.356 32.5658 34.5991 32.8865C33.8294 33.2136 33.0404 33.4574 32.2258 33.6241C31.3855 33.7973 30.5324 33.8807 29.6664 33.8807C28.8646 33.8807 28.0949 33.7268 27.3701 33.4189C26.6645 33.1174 26.0359 32.7005 25.4907 32.1488C24.9455 31.6036 24.5221 30.975 24.2206 30.2694C23.9127 29.5382 23.7588 28.7749 23.7588 27.9731C23.7588 27.1713 23.9127 26.4016 24.2206 25.6767C24.5221 24.9711 24.939 24.3425 25.4907 23.7973C26.0359 23.2521 26.6645 22.8287 27.3701 22.5273C27.864 22.322 28.3707 22.1809 28.8967 22.1168C29.2752 22.0654 29.5895 21.687 29.5061 21.315L28.0179 14.349C27.9346 13.9641 27.5818 13.7075 27.1905 13.7781C27.0494 13.8037 26.9083 13.8294 26.7671 13.8615C25.8371 14.0539 24.9326 14.3297 24.0539 14.7017C23.1943 15.0674 22.3797 15.51 21.6036 16.0295C20.8403 16.5491 20.1283 17.1328 19.474 17.7871C18.8197 18.4413 18.236 19.1533 17.7165 19.9166C17.1905 20.6928 16.7479 21.5074 16.3887 22.3669C16.0167 23.2457 15.7408 24.1437 15.5484 25.0802C15.356 26.0359 15.2534 26.9981 15.2534 27.9795C15.2534 28.9609 15.3496 29.923 15.5484 30.8788C15.7408 31.8089 16.0167 32.7133 16.3887 33.5921C16.7543 34.4516 17.1969 35.2662 17.7165 36.0423C18.236 36.8057 18.8197 37.5177 19.474 38.1719C20.1283 38.8262 20.8403 39.4099 21.6036 39.9295C22.3797 40.4554 23.1943 40.898 24.0539 41.2572C24.9326 41.6293 25.8306 41.9051 26.7671 42.0975C27.7229 42.2899 28.685 42.3926 29.6664 42.3926C31.1097 42.3926 32.5272 42.2515 33.932 41.9628C35.2982 41.6806 36.626 41.2701 37.9153 40.7248C39.1789 40.1924 40.3784 39.5382 41.5138 38.7685C42.6427 38.0051 43.6818 37.1456 44.644 36.1835C45.6061 35.2213 46.4657 34.1758 47.229 33.0532C47.9987 31.9179 48.6465 30.712 49.1853 29.4548C49.7306 28.1655 50.1411 26.8377 50.4233 25.4715C50.712 24.0667 50.8531 22.6491 50.8531 21.2059C50.8531 19.7627 50.712 18.3451 50.4233 16.9404C50.1411 15.5741 49.7306 14.2463 49.1853 12.957C48.653 11.6934 47.9987 10.4939 47.229 9.35857C46.4657 8.22964 45.6061 7.19051 44.644 6.22836C43.6818 5.2662 42.6363 4.40668 41.5138 3.64337C40.3784 2.87364 39.1725 2.22579 37.9153 1.68699C36.626 1.14176 35.2982 0.731245 33.932 0.449013C32.6427 0.166774 31.3342 0.0256575 30.0064 0Z" fill-rule="nonzero" transform="matrix(1 0 0 1 -0.00640869 0)" fill="rgb(0, 204, 80)"/>
</svg>
