<?xml version="1.0" encoding="utf-8" ?>
<svg xmlns="http://www.w3.org/2000/svg" xmlns:xlink="http://www.w3.org/1999/xlink" width="303.0148" height="60" viewBox="0 0 303.0148 60">
	<defs>
		<clipPath id="clipPath9182061812">
			<path d="M0 0L303.015 0L303.015 60L0 60L0 0Z" fill-rule="nonzero" transform="matrix(1 0 0 1 0 0)"/>
		</clipPath>
	</defs>
	<g clip-path="url(#clipPath9182061812)">
		<path d="M30.0064 0L29.8204 0L29.6664 0C27.7421 0.0256575 25.8371 0.224503 23.9641 0.609365C22.0269 1.00706 20.1475 1.59076 18.3258 2.36049C16.5362 3.11738 14.8364 4.04105 13.2264 5.12508C11.6292 6.20269 10.1539 7.42142 8.78768 8.78769C7.42783 10.1475 6.20269 11.6293 5.12508 13.2264C4.03464 14.8364 3.11097 16.5362 2.36049 18.3259C1.59076 20.1475 1.00706 22.0269 0.609365 23.9641C0.20526 25.9525 0 27.9666 0 30.0064C0 32.0462 0.20526 34.0603 0.609365 36.0488C1.00706 37.9859 1.59076 39.8653 2.36049 41.687C3.11738 43.4766 4.04105 45.1764 5.12508 46.7864C6.20269 48.3836 7.42142 49.8589 8.78768 51.2251C10.1475 52.585 11.6292 53.8101 13.2264 54.8877C14.8364 55.9782 16.5362 56.9019 18.3258 57.6523C20.1475 58.4221 22.0269 59.0058 23.9641 59.4035C25.9525 59.8076 27.9666 60.0128 30.0064 60.0128C32.0462 60.0128 34.0603 59.8076 36.0487 59.4035C36.363 59.3393 36.6709 59.2688 36.9788 59.1982C37.3701 59.102 37.6074 58.7171 37.524 58.3259L36.0423 51.4817C35.9525 51.0648 35.5163 50.8018 35.0994 50.9044C34.8492 50.9686 34.5927 51.0199 34.3425 51.0712C32.9185 51.3598 31.4753 51.5074 30.0064 51.5074C28.5375 51.5074 27.0943 51.3598 25.6703 51.0712C24.2848 50.789 22.9442 50.372 21.6421 49.8204C20.3656 49.2816 19.1469 48.6209 17.9923 47.8384C16.8505 47.0622 15.7857 46.1899 14.8108 45.2085C13.8294 44.2271 12.957 43.1687 12.1809 42.0269C11.3983 40.8724 10.7376 39.6536 10.1988 38.3772C9.6472 37.0751 9.23027 35.7345 8.94803 34.3489C8.65939 32.925 8.51186 31.4817 8.51186 30.0128C8.51186 28.5439 8.65939 27.1007 8.94803 25.6767C9.23027 24.2912 9.6472 22.9506 10.1988 21.6485C10.7376 20.372 11.3983 19.1533 12.1809 17.9987C12.957 16.857 13.8294 15.7922 14.8108 14.8172C15.7922 13.8358 16.8505 12.9634 17.9923 12.1873C19.1469 11.4048 20.3656 10.7441 21.6421 10.2053C22.9442 9.65363 24.2848 9.23669 25.6703 8.95446C27.0301 8.67864 28.4156 8.53111 29.814 8.51828C30.6286 8.5247 31.4368 8.6145 32.2258 8.77486C33.0404 8.94163 33.8358 9.18538 34.5991 9.51251C35.356 9.83323 36.068 10.2181 36.7543 10.6799C37.4278 11.1353 38.0564 11.6549 38.6337 12.2322C39.211 12.8095 39.7306 13.4381 40.186 14.1116C40.6478 14.7915 41.0327 15.5099 41.3534 16.2668C41.6805 17.0366 41.9243 17.8255 42.0911 18.6402C42.2642 19.4804 42.3476 20.3336 42.3476 21.1995C42.3476 22.0654 42.2643 22.9185 42.0911 23.7588C41.9243 24.5735 41.6805 25.3688 41.3534 26.1321C41.0327 26.889 40.6478 27.601 40.186 28.2874C39.7306 28.9609 39.211 29.5895 38.6337 30.1668C38.0564 30.7441 37.4278 31.2636 36.7543 31.7191C36.0744 32.1809 35.356 32.5658 34.5991 32.8865C33.8294 33.2136 33.0404 33.4574 32.2258 33.6241C31.3855 33.7973 30.5324 33.8807 29.6664 33.8807C28.8646 33.8807 28.0949 33.7268 27.3701 33.4189C26.6645 33.1174 26.0359 32.7005 25.4907 32.1488C24.9455 31.6036 24.5221 30.975 24.2206 30.2694C23.9127 29.5382 23.7588 28.7749 23.7588 27.9731C23.7588 27.1713 23.9127 26.4016 24.2206 25.6767C24.5221 24.9711 24.939 24.3425 25.4907 23.7973C26.0359 23.2521 26.6645 22.8287 27.3701 22.5273C27.864 22.322 28.3707 22.1809 28.8967 22.1168C29.2752 22.0654 29.5895 21.687 29.5061 21.315L28.0179 14.349C27.9346 13.9641 27.5818 13.7075 27.1905 13.7781C27.0494 13.8037 26.9083 13.8294 26.7671 13.8615C25.8371 14.0539 24.9326 14.3297 24.0539 14.7017C23.1943 15.0674 22.3797 15.51 21.6036 16.0295C20.8403 16.5491 20.1283 17.1328 19.474 17.7871C18.8197 18.4413 18.236 19.1533 17.7165 19.9166C17.1905 20.6928 16.7479 21.5074 16.3887 22.3669C16.0167 23.2457 15.7408 24.1437 15.5484 25.0802C15.356 26.0359 15.2534 26.9981 15.2534 27.9795C15.2534 28.9609 15.3496 29.923 15.5484 30.8788C15.7408 31.8089 16.0167 32.7133 16.3887 33.5921C16.7543 34.4516 17.1969 35.2662 17.7165 36.0423C18.236 36.8057 18.8197 37.5177 19.474 38.1719C20.1283 38.8262 20.8403 39.4099 21.6036 39.9295C22.3797 40.4554 23.1943 40.898 24.0539 41.2572C24.9326 41.6293 25.8306 41.9051 26.7671 42.0975C27.7229 42.2899 28.685 42.3926 29.6664 42.3926C31.1097 42.3926 32.5272 42.2515 33.932 41.9628C35.2982 41.6806 36.626 41.2701 37.9153 40.7248C39.1789 40.1924 40.3784 39.5382 41.5138 38.7685C42.6427 38.0051 43.6818 37.1456 44.644 36.1835C45.6061 35.2213 46.4657 34.1758 47.229 33.0532C47.9987 31.9179 48.6465 30.712 49.1853 29.4548C49.7306 28.1655 50.1411 26.8377 50.4233 25.4715C50.712 24.0667 50.8531 22.6491 50.8531 21.2059C50.8531 19.7627 50.712 18.3451 50.4233 16.9404C50.1411 15.5741 49.7306 14.2463 49.1853 12.957C48.653 11.6934 47.9987 10.4939 47.229 9.35857C46.4657 8.22964 45.6061 7.19051 44.644 6.22836C43.6818 5.2662 42.6363 4.40668 41.5138 3.64337C40.3784 2.87364 39.1725 2.22579 37.9153 1.68699C36.626 1.14176 35.2982 0.731245 33.932 0.449013C32.6427 0.166774 31.3342 0.0256575 30.0064 0Z" fill-rule="nonzero" transform="matrix(1 0 0 1 -0.00640869 0)" fill="rgb(0, 204, 80)"/>
		<path d="M14.2014 0L0.622195 0C0.282234 0 0 0.275818 0 0.622194L0 46.5555C0 46.8954 0.275818 47.1777 0.622195 47.1777L7.20334 47.1777C7.5433 47.1777 7.82553 46.9019 7.82553 46.5555L7.82553 32.4952C7.82553 32.1552 8.10135 31.873 8.44773 31.873L14.4708 31.873C23.3868 31.9307 30.5837 24.6376 30.4362 15.6895C30.2887 6.93393 22.9634 3.05861e-06 14.2078 3.05861e-06L14.2014 0ZM14.4644 24.0603L8.44131 24.0603C8.10135 24.0603 7.81912 23.7845 7.81912 23.4381L7.81912 8.37716C7.81912 8.0372 8.09494 7.75497 8.44131 7.75497L14.4644 7.75497C18.9865 7.75497 22.6171 11.3855 22.6171 15.9076C22.6171 20.4298 18.9288 24.0603 14.4644 24.0603Z" fill-rule="evenodd" transform="matrix(1 0 0 1 66.0039 6.55549)" fill="rgb(0, 0, 0)"/>
		<path d="M0.622194 0C0.282234 0 0 0.275818 0 0.622194L0 31.238C0 31.5779 0.275813 31.8602 0.622194 31.8602L7.18409 31.8602C7.52405 31.8602 7.80628 31.5779 7.80628 31.238L7.80628 11.9051C8.66581 10.5645 11.2636 7.74214 17.5497 7.55613C17.8897 7.5433 18.1655 7.26748 18.1655 6.92752L18.1655 1.03913C18.1655 0.686342 17.8769 0.410524 17.5241 0.429766C13.4381 0.660684 10.2566 1.72547 7.79987 3.1238L7.79987 0.628613C7.79987 0.288652 7.52406 0.00641818 7.17768 0.00641818L0.615784 0.00641818L0.622194 0Z" fill-rule="nonzero" transform="matrix(1 0 0 1 135.427 21.873)" fill="rgb(0, 0, 0)"/>
		<path d="M32.0462 0.000107663L25.465 0.000107663C25.1251 0.000107663 24.8429 0.275926 24.8429 0.622302L24.8429 3.11749C22.2579 1.19318 19.0763 0.0578371 15.6318 0.0578371C6.99807 0.0578371 0 7.1842 0 15.9719C0 24.7596 6.99808 31.8859 15.6318 31.8859C19.0763 31.8859 22.2643 30.7506 24.8429 28.8263L24.8429 31.2637C24.8429 31.6037 25.1187 31.8859 25.465 31.8859L32.0462 31.8859C32.3862 31.8859 32.6684 31.6037 32.6684 31.2637L32.6684 0.615889C32.6684 0.275928 32.3926 -0.00630563 32.0462 0.000107663ZM15.6318 24.3041C11.2957 24.3041 7.78705 20.5261 7.78705 15.8757C7.78705 11.2252 11.3021 7.44719 15.6318 7.44719C19.9615 7.44719 23.4766 11.2252 23.4766 15.8757C23.4766 20.5261 19.9615 24.3041 15.6318 24.3041Z" fill-rule="nonzero" transform="matrix(1 0 0 1 96.4336 21.8729)" fill="rgb(0, 0, 0)"/>
		<path d="M32.0526 0L25.4715 0C25.1315 0 24.8493 0.275818 24.8493 0.622194L24.8493 3.11738C22.2643 1.19307 19.0828 0.0577294 15.6318 0.0577294C6.99807 0.0577294 0 7.18409 0 15.9718C0 24.7595 6.99808 31.8858 15.6318 31.8858C19.0763 31.8858 22.2643 30.7505 24.8493 28.8262L24.8493 31.27C24.8493 31.61 25.1251 31.8922 25.4715 31.8922L32.0526 31.8922C32.3926 31.8922 32.6748 31.6164 32.6748 31.27L32.6748 0.622194C32.6748 0.282234 32.399 0 32.0526 0ZM15.619 24.3233C11.2829 24.3233 7.77422 20.5452 7.77422 15.8948C7.77422 11.2444 11.2893 7.46632 15.619 7.46632C19.9487 7.46632 23.4638 11.2444 23.4638 15.8948C23.4638 20.5452 19.9487 24.3233 15.619 24.3233Z" fill-rule="nonzero" transform="matrix(1 0 0 1 153.579 21.873)" fill="rgb(0, 0, 0)"/>
		<rect width="7.8191109" height="47.171238" rx="0.62219363" ry="0.62219363" transform="matrix(1 0 0 1 217.133 6.55549)" fill="rgb(0, 0, 0)"/>
		<path d="M4.18216 10.9466C4.18216 10.2346 4.29761 5.937 7.97947 2.85169C10.8467 0.427056 14.9455 -0.458127 20.1475 0.221796C20.4554 0.260283 20.6735 0.523272 20.6735 0.831161L20.6735 7.45079C20.6735 7.83565 20.3143 8.13071 19.9294 8.06657C16.671 7.52135 14.1244 7.77792 12.9827 8.93251C12.7325 9.18267 12.5465 9.45848 12.4054 9.72789C12.1167 10.2731 11.9949 10.8889 11.9949 11.5047L11.9949 14.9107C11.9949 15.2507 12.2707 15.5329 12.6171 15.5329L20.0513 15.5329C20.3913 15.5329 20.6735 15.8087 20.6735 16.1551L20.6735 22.7362C20.6735 23.0762 20.3977 23.3584 20.0513 23.3584L12.6171 23.3584C12.2771 23.3584 11.9949 23.6342 11.9949 23.9806L11.9949 46.8991C11.9949 47.2391 11.7191 47.5213 11.3727 47.5213L4.79153 47.5213C4.45157 47.5213 4.16934 47.2455 4.16934 46.8991L4.16934 23.9614C4.16934 23.6214 3.89353 23.3392 3.54714 23.3392L0.622194 23.3392C0.282234 23.3392 0 23.0634 0 22.717L0 16.1358C0 15.7959 0.275813 15.5136 0.622194 15.5136L3.54714 15.5136C3.8871 15.5136 4.16934 15.2378 4.16934 14.8914L4.16934 10.9338L4.18216 10.9466Z" fill-rule="evenodd" transform="matrix(1 0 0 1 191.347 6.2503)" fill="rgb(0, 0, 0)"/>
		<path d="M6.63666 0.012829L0.619982 0.012829C0.203052 0.012829 -0.0984235 0.416935 0.029852 0.814625L8.97148 29.6664C9.05487 29.923 9.2922 30.1026 9.56161 30.1026L15.2383 30.1026C15.5077 30.1026 15.7451 29.9294 15.8285 29.6729L19.7605 17.4214C19.9465 16.8377 20.7803 16.8505 20.9471 17.4407L24.443 29.6536C24.5199 29.9166 24.7637 30.1026 25.0395 30.1026L30.7226 30.1026C30.9856 30.1026 31.2165 29.9358 31.3063 29.6921L41.6527 0.840283C41.8002 0.436177 41.4988 0.012829 41.069 0.012829L34.9561 0.012829C34.6931 0.012829 34.4622 0.179601 34.3724 0.423348C33.6347 2.48236 30.3057 11.7511 28.8111 15.9076C28.5995 16.4913 27.7592 16.44 27.6245 15.8307L24.2826 0.596536C24.2184 0.314305 23.9747 0.115459 23.6861 0.109045L18.0093 0.012829C17.7271 0.012829 17.4769 0.19243 17.4 0.461835L13.128 15.6767C12.9612 16.2732 12.1209 16.2797 11.9413 15.6895L7.22677 0.436177C7.14338 0.179601 6.90605 0 6.63664 0L6.63666 0.012829Z" fill-rule="nonzero" transform="matrix(1 0 0 1 261.33 23.6434)" fill="rgb(0, 0, 0)"/>
		<path d="M15.6318 0C6.99808 0 0 7.12636 0 15.914C0 24.7017 6.99808 31.8281 15.6318 31.8281C24.2655 31.8281 31.2636 24.7017 31.2636 15.914C31.2636 7.12637 24.2655 2.44689e-06 15.6318 0ZM15.6318 24.3425C11.2957 24.3425 7.78703 20.5645 7.78703 15.914C7.78703 11.2636 11.3021 7.48557 15.6318 7.48557C19.9615 7.48557 23.4766 11.2636 23.4766 15.914C23.4766 20.5645 19.9615 24.3425 15.6318 24.3425Z" fill-rule="nonzero" transform="matrix(1 0 0 1 230.064 21.9307)" fill="rgb(0, 0, 0)"/>
	</g>
</svg>
