<?xml version="1.0" encoding="utf-8" ?>
<svg xmlns="http://www.w3.org/2000/svg" xmlns:xlink="http://www.w3.org/1999/xlink" width="118.5054" height="23.7607" viewBox="0 0 118.5054 23.7607">
	<path d="M7.10071 0L0.311097 0C0.141117 0 0 0.137909 0 0.311097L0 23.2777C0 23.4477 0.137909 23.5888 0.311097 23.5888L3.60167 23.5888C3.77165 23.5888 3.91277 23.4509 3.91277 23.2777L3.91277 16.2476C3.91277 16.0776 4.05068 15.9365 4.22386 15.9365L7.23541 15.9365C11.6934 15.9654 15.2919 12.3188 15.2181 7.84477C15.1443 3.46697 11.4817 1.5293e-06 7.10391 1.5293e-06L7.10071 0ZM7.2322 12.0301L4.22066 12.0301C4.05068 12.0301 3.90956 11.8922 3.90956 11.719L3.90956 4.18858C3.90956 4.0186 4.04747 3.87749 4.22066 3.87749L7.2322 3.87749C9.49327 3.87749 11.3085 5.69275 11.3085 7.95381C11.3085 10.2149 9.4644 12.0301 7.2322 12.0301Z" fill-rule="evenodd" transform="matrix(1 0 0 1 -2.28882e-05 0.15259)" fill="rgb(255, 255, 255)"/>
	<path d="M0.311097 0C0.141117 0 0 0.137909 0 0.311097L0 15.619C0 15.789 0.137907 15.9301 0.311097 15.9301L3.59204 15.9301C3.76203 15.9301 3.90314 15.789 3.90314 15.619L3.90314 5.95253C4.3329 5.28223 5.63181 3.87107 8.77485 3.77806C8.94483 3.77165 9.08275 3.63374 9.08275 3.46376L9.08275 0.519566C9.08275 0.343171 8.93843 0.205262 8.76203 0.214883C6.71905 0.330342 5.12829 0.862734 3.89994 1.5619L3.89994 0.314306C3.89994 0.144326 3.76203 0.00320909 3.58884 0.00320909L0.307892 0.00320909L0.311097 0Z" fill-rule="nonzero" transform="matrix(1 0 0 1 34.7113 7.81134)" fill="rgb(255, 255, 255)"/>
	<path d="M16.0231 5.38315e-05L12.7325 5.38315e-05C12.5625 5.38315e-05 12.4214 0.137963 12.4214 0.311151L12.4214 1.55874C11.1289 0.59659 9.53817 0.0289185 7.81591 0.0289185C3.49904 0.0289185 0 3.5921 0 7.98594C0 12.3798 3.49904 15.943 7.81591 15.943C9.53817 15.943 11.1321 15.3753 12.4214 14.4131L12.4214 15.6319C12.4214 15.8018 12.5593 15.943 12.7325 15.943L16.0231 15.943C16.1931 15.943 16.3342 15.8018 16.3342 15.6319L16.3342 0.307944C16.3342 0.137964 16.1963 -0.00315281 16.0231 5.38315e-05ZM7.81591 12.1521C5.64785 12.1521 3.89352 10.263 3.89352 7.93783C3.89352 5.61262 5.65106 3.72359 7.81591 3.72359C9.98076 3.72359 11.7383 5.61262 11.7383 7.93783C11.7383 10.263 9.98076 12.1521 7.81591 12.1521Z" fill-rule="nonzero" transform="matrix(1 0 0 1 15.2149 7.81129)" fill="rgb(255, 255, 255)"/>
	<path d="M16.0263 0L12.7357 0C12.5658 0 12.4246 0.137909 12.4246 0.311097L12.4246 1.55869C11.1321 0.596536 9.54138 0.0288647 7.81591 0.0288647C3.49904 0.0288647 0 3.59205 0 7.98589C0 12.3797 3.49904 15.9429 7.81591 15.9429C9.53817 15.9429 11.1321 15.3752 12.4246 14.4131L12.4246 15.635C12.4246 15.805 12.5625 15.9461 12.7357 15.9461L16.0263 15.9461C16.1963 15.9461 16.3374 15.8082 16.3374 15.635L16.3374 0.311097C16.3374 0.141117 16.1995 0 16.0263 0ZM7.8095 12.1616C5.64144 12.1616 3.88711 10.2726 3.88711 7.9474C3.88711 5.62219 5.64465 3.73316 7.8095 3.73316C9.97435 3.73316 11.7319 5.62219 11.7319 7.9474C11.7319 10.2726 9.97435 12.1616 7.8095 12.1616Z" fill-rule="nonzero" transform="matrix(1 0 0 1 43.7876 7.81134)" fill="rgb(255, 255, 255)"/>
	<rect width="3.9095554" height="23.585619" rx="0.31109682" ry="0.31109682" transform="matrix(1 0 0 1 75.5645 0.15259)" fill="rgb(255, 255, 255)"/>
	<path d="M2.09108 5.47331C2.09108 5.11731 2.14881 2.9685 3.98974 1.42584C5.42335 0.213528 7.47273 -0.229063 10.0738 0.110898C10.2277 0.130141 10.3368 0.261636 10.3368 0.41558L10.3368 3.72539C10.3368 3.91783 10.1572 4.06536 9.96472 4.03328C8.33548 3.76067 7.06222 3.88896 6.49135 4.46625C6.36626 4.59133 6.27326 4.72924 6.2027 4.86394C6.05837 5.13655 5.99744 5.44444 5.99744 5.75233L5.99744 7.45535C5.99744 7.62533 6.13534 7.76645 6.30853 7.76645L10.0257 7.76645C10.1956 7.76645 10.3368 7.90436 10.3368 8.07754L10.3368 11.3681C10.3368 11.5381 10.1988 11.6792 10.0257 11.6792L6.30853 11.6792C6.13855 11.6792 5.99744 11.8171 5.99744 11.9903L5.99744 23.4496C5.99744 23.6196 5.85953 23.7607 5.68634 23.7607L2.39577 23.7607C2.22579 23.7607 2.08467 23.6228 2.08467 23.4496L2.08467 11.9807C2.08467 11.8107 1.94676 11.6696 1.77357 11.6696L0.311097 11.6696C0.141117 11.6696 0 11.5317 0 11.3585L0 8.06792C0 7.89794 0.137907 7.75682 0.311097 7.75682L1.77357 7.75682C1.94355 7.75682 2.08467 7.61891 2.08467 7.44572L2.08467 5.46689L2.09108 5.47331Z" fill-rule="evenodd" transform="matrix(1 0 0 1 62.6716 -1.43051e-06)" fill="rgb(255, 255, 255)"/>
	<path d="M3.31833 0.00641451L0.309991 0.00641451C0.101526 0.00641451 -0.0492118 0.208467 0.014926 0.407312L4.48574 14.8332C4.52743 14.9615 4.6461 15.0513 4.7808 15.0513L7.61916 15.0513C7.75387 15.0513 7.87253 14.9647 7.91423 14.8364L9.88023 8.71071C9.97324 8.41886 10.3902 8.42527 10.4736 8.72033L12.2215 14.8268C12.26 14.9583 12.3818 15.0513 12.5197 15.0513L15.3613 15.0513C15.4928 15.0513 15.6083 14.9679 15.6532 14.8461L20.8263 0.420141C20.9001 0.218089 20.7494 0.00641451 20.5345 0.00641451L17.478 0.00641451C17.3465 0.00641451 17.2311 0.0898007 17.1862 0.211674C16.8174 1.24118 15.1528 5.87556 14.4056 7.95381C14.2997 8.24567 13.8796 8.22001 13.8122 7.91533L12.1413 0.298268C12.1092 0.157153 11.9873 0.0577294 11.843 0.0545227L9.00467 0.00641451C8.86355 0.00641451 8.73847 0.0962152 8.69998 0.230918L6.564 7.83836C6.48061 8.13662 6.06047 8.13983 5.97067 7.84477L3.61338 0.218089C3.57169 0.0898007 3.45303 0 3.31832 0L3.31833 0.00641451Z" fill-rule="nonzero" transform="matrix(1 0 0 1 97.663 8.69652)" fill="rgb(255, 255, 255)"/>
	<path d="M7.81591 0C3.49904 0 0 3.56318 0 7.95702C0 12.3509 3.49904 15.914 7.81591 15.914C12.1328 15.914 15.6318 12.3509 15.6318 7.95702C15.6318 3.56318 12.1328 1.22344e-06 7.81591 0ZM7.81591 12.1713C5.64785 12.1713 3.89352 10.2822 3.89352 7.95702C3.89352 5.63182 5.65106 3.74278 7.81591 3.74278C9.98075 3.74278 11.7383 5.63182 11.7383 7.95702C11.7383 10.2822 9.98075 12.1713 7.81591 12.1713Z" fill-rule="nonzero" transform="matrix(1 0 0 1 82.0301 7.84021)" fill="rgb(255, 255, 255)"/>
</svg>




